<svg width="438" height="460.52563" xmlns="http://www.w3.org/2000/svg">
 <title>factory</title>

 <g>
  <title>background</title>
  <rect fill="none" id="canvas_background" height="462.52563" width="440" y="-1" x="-1"/>
 </g>
 <g>
  <title>Layer 1</title>
  <path id="svg_1" fill="#e2e2e2" d="m213.70122,452.70604l-21.87443,-34.71387l21.88457,38.49557l0.01173,3.95547q2.34084,-0.02736 4.63442,-0.17946l-1.78417,-50.81218l0.02346,-0.39275l-0.0402,-0.075l-0.16988,-4.80142l22.87164,-38.04637l-22.89523,34.4507l-0.06851,1.017l-1.34778,-38.39059l19.66232,-39.36387l-19.816,32.61808l-0.92176,-79.573l-0.00422,-0.26483l-0.00317,0.2606l-0.44881,62.73791l-18.78843,-25.10244l18.80506,30.50606l0.08719,34.362l-17.4329,-33.18692l17.44253,38.23878l0.04824,19.107l-25.32289,-46.20812l25.34285,52.87363l0.10437,42.48802z"/>
  <path id="svg_2" fill="#e2e2e2" d="m401.41283,452.70604l-21.87443,-34.71387l21.8846,38.49557l0.01173,3.95547q2.34084,-0.02736 4.63442,-0.17946l-1.78415,-50.81218l0.02346,-0.39275l-0.0402,-0.075l-0.16988,-4.80142l22.87162,-38.04635l-22.89524,34.4507l-0.0685,1.017l-1.34778,-38.39059l19.66232,-39.36387l-19.816,32.61808l-0.92176,-79.573l-0.00423,-0.26483l-0.00317,0.2606l-0.4488,62.73791l-18.78843,-25.10244l18.80506,30.50606l0.08719,34.362l-17.43291,-33.18692l17.44254,38.23878l0.04823,19.107l-25.32288,-46.20808l25.34285,52.87363l0.10434,42.48796z"/>
  <path id="svg_3" fill="#e2e2e2" d="m25.81131,454.93866l-15.79541,-25.0667l15.80273,27.79745l0.00847,2.85622q1.6903,-0.01975 3.34649,-0.12959l-1.28834,-36.6912l0.01694,-0.2836l-0.029,-0.05415l-0.12267,-3.46707l16.51548,-27.47309l-16.53253,24.87667l-0.04946,0.73435l-0.97323,-27.72164l14.19806,-28.42444l-14.309,23.55334l-0.6656,-57.45927l-0.00305,-0.19123l-0.00229,0.18817l-0.32408,45.30272l-13.567,-18.12634l13.579,22.02826l0.063,24.81262l-12.58821,-23.9641l12.59516,27.612l0.03484,13.79707l-18.28561,-33.36659l18.29994,38.17977l0.07537,30.68037z"/>
  <rect id="svg_5" fill="#f50004" transform="rotate(-180 803.4278564453126,1015.3279418945312) " height="5" width="118" y="1630.3605" x="1224.1418"/>
  <rect id="svg_6" fill="#f50004" transform="rotate(-180 791.4278564453126,1005.3279418945312) " height="5" width="118" y="1615.3605" x="1206.1418"/>
  <rect id="svg_7" fill="#f50004" transform="rotate(-180 805.4278564453126,995.3279418945312) " height="5" width="118" y="1600.3605" x="1227.1418"/>
  <rect id="svg_8" fill="#f50004" transform="rotate(-180 829.4278564453126,985.3279418945312) " height="5" width="118" y="1585.3605" x="1263.1418"/>
  <rect id="svg_9" fill="#3f3d56" transform="rotate(-180 514.7229614257814,965.2259521484375) " height="29.08849" width="4.09697" y="1543.16327" x="848.03595"/>
  <rect id="svg_10" fill="#3f3d56" transform="rotate(-112.09150695800781 -100.38591003417973,915.1075439453124) " height="163.62126" width="4.09697" y="1381.99547" x="307.44494"/>
  <rect id="svg_11" fill="#3f3d56" transform="rotate(-180 394.68170166015625,1067.240478515625) " height="13.9297" width="35.64365" y="1703.76448" x="652.20072"/>
  <rect id="svg_12" fill="#3f3d56" transform="rotate(-180 541.3532714843751,1093.461181640625) " height="15.56849" width="175.76006" y="1742.2761" x="802.14987"/>
  <polygon id="svg_13" fill="#e2e2e2" points="133.68 436.862 175.879 436.862 175.879 383.806 144.332 383.806 133.68 410.565 133.68 436.862"/>
  <rect id="svg_14" fill="#fff" transform="rotate(-180 476.6211242675781,1011.931396484375) " height="18.02667" width="18.02667" y="1618.75236" x="783.91834"/>
  <polygon id="svg_15" fill="#fff" points="137.777 405.315 149.249 405.315 149.249 387.289 144.332 387.289 137.777 405.315"/>
  <rect id="svg_16" fill="#3f3d56" transform="rotate(-180 488.9120178222656,1058.2271728515625) " height="7.78425" width="4.09697" y="1693.31723" x="809.31955"/>
  <path id="svg_17" fill="#3f3d56" transform="rotate(180 443.4356689453125,1025.041748046875) " d="m741.10501,1643.53908l0.20485,0a3.89212,3.89212 0 0 1 3.89212,3.89212l0,0a3.89212,3.89212 0 0 1 -3.89212,3.89212l-0.20485,0a0,0 0 0 1 0,0l0,-7.78425a0,0 0 0 1 0,0.00001z"/>
  <path id="svg_18" fill="#3f3d56" d="m298.17362,436.86198l-0.20485,0a-3.89212,-3.89212 0 0 1 -3.89212,-3.89212l0,0a-3.89212,-3.89212 0 0 1 3.89212,-3.89212l0.20485,0a0,0 0 0 1 0,0l0,7.78425a0,0 0 0 1 0,-0.00001z"/>
  <path id="svg_19" fill="#e2e2e2" d="m117.29236,429.01895a20.2704,20.2704 0 0 0 -15.75558,7.843l-8.00685,0l7.78425,-21.68366l36.25819,-7.151l-1.02424,28.83466l-3.50013,0a20.27042,20.27042 0 0 0 -15.75564,-7.843z"/>
  <circle id="svg_20" fill="#3f3d56" r="17.82182" cy="441.98319" cx="116.88267"/>
  <circle id="svg_21" fill="#e2e2e2" r="9.37991" cy="441.98319" cx="116.88267"/>
  <circle id="svg_22" fill="#3f3d56" r="15.56849" cy="444.03168" cx="277.89363"/>
  <circle id="svg_23" fill="#e2e2e2" r="8.19394" cy="444.03168" cx="277.89363"/>
  <rect id="svg_24" fill="#3f3d56" transform="rotate(-180 513.9035644531251,1034.6695556640625) " height="62.06911" width="8.60364" y="1630.8384" x="844.55352"/>
  <rect id="svg_25" fill="#3f3d56" transform="rotate(-180 629.0284423828126,1077.8927001953125) " height="3.68727" width="123.72853" y="1724.86398" x="959.6784"/>
  <rect id="svg_26" fill="#3f3d56" transform="rotate(-180 446.7132263183594,1033.6453857421875) " height="1.63879" width="4.09697" y="1659.51727" x="746.02136"/>
  <path id="svg_27" fill="#3f3d56" d="m324.39425,400.26471a0.40971,0.40971 0 0 1 -0.10422,-0.31848l5.65034,-53.43206a0.40987,0.40987 0 0 1 0.40569,-0.36669l0.0018,0a0.40985,0.40985 0 0 1 0.4071,0.36309l6.11104,53.32125a0.40975,0.40975 0 0 1 -0.4033,0.4563l-11.76139,0.11083l-0.0038,0a0.40928,0.40928 0 0 1 -0.30326,-0.13424zm5.97,-49.96645l-5.211,49.27688l10.84675,-0.10202l-5.63575,-49.17486z"/>
  <path id="svg_28" fill="#3f3d56" transform="rotate(20.71738052368164 86.94130706787097,-269.62329101562494) " d="m342.82155,366.08132l0.20485,0a3.89212,3.89212 0 0 1 3.89212,3.89212l0,0a3.89212,3.89212 0 0 1 -3.89212,3.89212l-0.20485,0a0,0 0 0 1 0,0l0,-7.78425a0,0 0 0 1 0,0.00001z"/>
  <rect id="svg_29" fill="#3f3d56" transform="rotate(-180 817.0794067382812,872.2246704101562) " height="59.81578" width="4.09697" y="1388.29772" x="1301.57063"/>
  <circle id="svg_30" fill="#3f3d56" r="5.73576" cy="359.01953" cx="179.36148"/>
  <rect id="svg_31" fill="#f50004" transform="rotate(-180 649.4278564453126,1069.327880859375) " height="5" width="118" y="1711.36044" x="993.1418"/>
  <rect id="svg_32" fill="#f50004" transform="rotate(-180 663.4278564453126,1059.327880859375) " height="5" width="118" y="1696.36044" x="1014.1418"/>
  <rect id="svg_33" fill="#f50004" transform="rotate(-180 653.4278564453126,1051.327880859375) " height="5" width="118" y="1684.36044" x="999.1418"/>
  <rect id="svg_34" fill="#f50004" transform="rotate(-180 667.4278564453126,1041.327880859375) " height="5" width="118" y="1669.36044" x="1020.1418"/>
  <rect id="svg_39" fill="#3f3d56" transform="rotate(-180 2237.948974609375,1560.5908203124998) " height="170.58898" width="147.45827" y="1475.2964" x="2164.21963"/>
  <rect id="svg_40" fill="#e2e2e2" transform="rotate(-180 2237.94873046875,1764.4302978515623) " height="34.69606" width="39.75591" y="1747.08226" x="2218.07081"/>
  <rect id="svg_47" fill="#fff" transform="rotate(-180 2333.94873046875,1396.4743652343748) " height="20" width="20" y="1386.47437" x="2323.94876"/>
  <rect id="svg_48" fill="#fff" transform="rotate(-180 2237.94873046875,1395.4743652343748) " height="20" width="20" y="1385.47437" x="2227.94876"/>
  <rect id="svg_49" fill="#fff" transform="rotate(-180 2141.94873046875,1396.4743652343748) " height="20" width="20" y="1386.47437" x="2131.94876"/>
  <rect id="svg_50" fill="#fff" transform="rotate(-180 2333.94873046875,1494.4743652343748) " height="20" width="20" y="1484.47437" x="2323.94876"/>
  <rect id="svg_51" fill="#fff" transform="rotate(-180 2237.94873046875,1492.4743652343748) " height="20" width="20" y="1482.47437" x="2227.94876"/>
  <rect id="svg_52" fill="#fff" transform="rotate(-180 2141.94873046875,1492.4743652343748) " height="20" width="20" y="1482.47437" x="2131.94876"/>
  <rect id="svg_53" fill="#fff" transform="rotate(-180 2333.94873046875,1588.4743652343748) " height="20" width="20" y="1578.47437" x="2323.94876"/>
  <rect id="svg_54" fill="#fff" transform="rotate(-180 2237.94873046875,1588.4743652343748) " height="20" width="20" y="1578.47437" x="2227.94876"/>
  <rect id="svg_55" fill="#fff" transform="rotate(-180 2141.94873046875,1588.4743652343748) " height="20" width="20" y="1578.47437" x="2131.94876"/>
  <rect id="svg_56" fill="#fff" transform="rotate(-180 1927.852783203125,1372.4743652343748) " height="20" width="20" y="1362.47437" x="1917.85282"/>
  <rect id="svg_57" fill="#fff" transform="rotate(-180 1927.852783203125,1468.4743652343748) " height="20" width="20" y="1458.47437" x="1917.85282"/>
  <rect id="svg_58" fill="#fff" transform="rotate(-180 1927.852783203125,1564.4743652343748) " height="20" width="20" y="1554.47437" x="1917.85282"/>
  <rect id="svg_59" fill="#fff" transform="rotate(-180 1927.852783203125,1660.4743652343748) " height="20" width="20" y="1650.47437" x="1917.85282"/>
  <rect id="svg_60" fill="#fff" transform="rotate(-180 2547.5439453125,1372.4743652343748) " height="20" width="20" y="1362.47437" x="2537.54404"/>
  <rect id="svg_61" fill="#fff" transform="rotate(-180 2547.5439453125,1468.4743652343748) " height="20" width="20" y="1458.47437" x="2537.54404"/>
  <rect id="svg_62" fill="#fff" transform="rotate(-180 2547.5439453125,1565.4743652343748) " height="20" width="20" y="1555.47437" x="2537.54404"/>
  <rect id="svg_63" fill="#fff" transform="rotate(-180 2547.5439453125,1661.4743652343748) " height="20" width="20" y="1651.47437" x="2537.54404"/>
 </g>
</svg>