<svg width="132.74509" height="396.0383" xmlns="http://www.w3.org/2000/svg">
 <g>
  <title>background</title>
  <rect x="-1" y="-1" width="134.74509" height="398.0383" id="canvas_background" fill="none"/>
 </g>

 <g>
  <title>Layer 1</title>
  <g stroke="null" id="svg_3">
   <path stroke="null" stroke-width="0" d="m65.27703,392.34556c0.66327,0.74916 1.35471,1.49832 2.06027,2.23632l59.53525,0c-0.45157,-0.63738 -0.97368,-1.38648 -1.58045,-2.23632c-9.83556,-14.06666 -38.94693,-56.12119 -65.96995,-99.7188c-29.04092,-46.85154 -55.68291,-95.48094 -53.43919,-113.081c-0.6914,3.96951 -20.7858,124.97833 59.39409,212.7998z" fill="#ff0000" id="svg_2"/>
   <path stroke="null" stroke-width="0" d="m31.03231,292.62678a-455.24316,360.73513 0 0 1 21.26563,99.7188c0.29628,0.74916 0.60674,1.48712 0.91717,2.23632l79.36158,0c-0.08467,-0.67095 -0.16941,-1.42011 -0.25407,-2.23632c-5.29171,-48.20456 -35.80016,-341.59114 0.67739,-391.76371c-3.18915,4.07019 -108.12017,138.87731 -101.96769,292.04491z" fill="#ff0000" id="svg_1"/>
  </g>
 </g>
</svg>