<svg width="132.74509" height="396.0383" xmlns="http://www.w3.org/2000/svg">

 <g>
  <title>background</title>
  <rect fill="none" id="canvas_background" height="398.0383" width="134.74509" y="-1" x="-1"/>
 </g>
 <g>
  <title>Layer 1</title>
  <path id="svg_1" fill="#ff0000" d="m85.8721,292.368a361.65067,361.65067 0 0 1 -16.89367,99.97188c-0.23537,0.75106 -0.482,1.49089 -0.72861,2.242l-63.0458,0c0.06726,-0.67265 0.13458,-1.42371 0.20184,-2.242c4.2038,-48.3269 28.44008,-342.45809 -0.53813,-392.758c2.5335,4.08052 85.89197,139.22978 81.00437,292.78612z"/>
  <path id="svg_2" fill="#ff0000" d="m81.14146,392.33988c-0.52691,0.75106 -1.0762,1.50212 -1.6367,2.242l-47.29552,0c0.35873,-0.639 0.7735,-1.39 1.25553,-2.242c7.81349,-14.10236 30.93991,-56.26362 52.40733,-99.97188c23.07046,-46.97045 44.23518,-95.72327 42.45274,-113.368c0.54926,3.97958 16.51249,125.29552 -47.18338,213.33988z"/>
 </g>
</svg>