<svg width="512.092" height="512.092" xmlns="http://www.w3.org/2000/svg">

 <g>
  <title>background</title>
  <rect fill="none" id="canvas_background" height="602" width="802" y="-1" x="-1"/>
 </g>
 <g>
  <title>Layer 1</title>
  <g id="svg_1">
   <g id="svg_2">
    <path fill="#ff0000" id="svg_3" d="m312.453,199.601c-6.066,-6.102 -12.792,-11.511 -20.053,-16.128c-19.232,-12.315 -41.59,-18.859 -64.427,-18.859c-31.697,-0.059 -62.106,12.535 -84.48,34.987l-108.544,108.629c-22.336,22.379 -34.89,52.7 -34.91,84.318c-0.042,65.98 53.41,119.501 119.39,119.543c31.648,0.11 62.029,-12.424 84.395,-34.816l89.6,-89.6c1.628,-1.614 2.537,-3.816 2.524,-6.108c-0.027,-4.713 -3.87,-8.511 -8.583,-8.484l-3.413,0c-18.72,0.066 -37.273,-3.529 -54.613,-10.581c-3.195,-1.315 -6.867,-0.573 -9.301,1.877l-64.427,64.512c-20.006,20.006 -52.442,20.006 -72.448,0c-20.006,-20.006 -20.006,-52.442 0,-72.448l108.971,-108.885c19.99,-19.965 52.373,-19.965 72.363,0c13.472,12.679 34.486,12.679 47.957,0c5.796,-5.801 9.31,-13.495 9.899,-21.675c0.623,-9.775 -2.982,-19.348 -9.9,-26.282z"/>
   </g>
  </g>
  <g id="svg_4">
   <g id="svg_5">
    <path fill="#ff0000" id="svg_6" d="m477.061,34.993c-46.657,-46.657 -122.303,-46.657 -168.96,0l-89.515,89.429c-2.458,2.47 -3.167,6.185 -1.792,9.387c1.359,3.211 4.535,5.272 8.021,5.205l3.157,0c18.698,-0.034 37.221,3.589 54.528,10.667c3.195,1.315 6.867,0.573 9.301,-1.877l64.256,-64.171c20.006,-20.006 52.442,-20.006 72.448,0c20.006,20.006 20.006,52.442 0,72.448l-80.043,79.957l-0.683,0.768l-27.989,27.819c-19.99,19.965 -52.373,19.965 -72.363,0c-13.472,-12.679 -34.486,-12.679 -47.957,0c-5.833,5.845 -9.35,13.606 -9.899,21.845c-0.624,9.775 2.981,19.348 9.899,26.283c9.877,9.919 21.433,18.008 34.133,23.893c1.792,0.853 3.584,1.536 5.376,2.304c1.792,0.768 3.669,1.365 5.461,2.048c1.792,0.683 3.669,1.28 5.461,1.792l5.035,1.365c3.413,0.853 6.827,1.536 10.325,2.133c4.214,0.626 8.458,1.025 12.715,1.195l5.973,0l0.512,0l5.12,-0.597c1.877,-0.085 3.84,-0.512 6.059,-0.512l2.901,0l5.888,-0.853l2.731,-0.512l4.949,-1.024l0.939,0c20.961,-5.265 40.101,-16.118 55.381,-31.403l108.629,-108.629c46.66,-46.657 46.66,-122.303 0.003,-168.96z"/>
   </g>
  </g>
  <g id="svg_7"/>
  <g id="svg_8"/>
  <g id="svg_9"/>
  <g id="svg_10"/>
  <g id="svg_11"/>
  <g id="svg_12"/>
  <g id="svg_13"/>
  <g id="svg_14"/>
  <g id="svg_15"/>
  <g id="svg_16"/>
  <g id="svg_17"/>
  <g id="svg_18"/>
  <g id="svg_19"/>
  <g id="svg_20"/>
  <g id="svg_21"/>
 </g>
</svg>