<svg width="205.70364" height="392.5" xmlns="http://www.w3.org/2000/svg">

 <g>
  <title>background</title>
  <rect fill="none" id="canvas_background" height="394.5" width="207.70364" y="-1" x="-1"/>
 </g>
 <g>
  <title>Layer 1</title>
  <path id="svg_1" fill="#e6e6e6" d="m23.78582,110.15525l-14.13569,0a1.81781,1.81781 0 0 1 -1.81577,-1.64688l-2.82949,-29.00177l23.42618,0l-2.82948,29.0014a1.81784,1.81784 0 0 1 -1.81575,1.64725z"/>
  <path id="svg_2" fill="#ccc" d="m28.39364,83.15525l-23.35135,0a1.82648,1.82648 0 0 1 -1.82433,-1.82433l0,-4.37838a1.82647,1.82647 0 0 1 1.82433,-1.82432l23.35135,0a1.82647,1.82647 0 0 1 1.82432,1.82432l0,4.37838a1.82648,1.82648 0 0 1 -1.82432,1.82433z"/>
  <path id="svg_25" fill="#ccc" d="m162.663,280.47005a167.50624,167.50624 0 0 1 -24.0754,-44.93174a4.30257,4.30257 0 0 1 2.03179,-5.17937l35.14526,-18.83159a4.24661,4.24661 0 0 1 3.72552,-0.15124a4.31917,4.31917 0 0 1 2.46132,2.884a102.32827,102.32827 0 0 0 22.44563,41.89074a4.318,4.318 0 0 1 1.03823,3.64653a4.2466,4.2466 0 0 1 -2.18939,3.01811l-35.14526,18.83161a4.30257,4.30257 0 0 1 -5.4377,-1.17705z"/>
  <path id="svg_26" fill="#fff" d="m165.06131,278.66789a1.29855,1.29855 0 0 0 1.62208,0.335l35.1455,-18.832a1.24595,1.24595 0 0 0 0.65259,-0.897a1.31806,1.31806 0 0 0 -0.32495,-1.12793a105.34006,105.34006 0 0 1 -23.10693,-43.125a1.31862,1.31862 0 0 0 -0.75806,-0.895a1.24691,1.24691 0 0 0 -1.11035,0.0459l-35.14478,18.83154a1.29832,1.29832 0 0 0 -0.61963,1.53711a164.50739,164.50739 0 0 0 23.64453,44.12744l0,-0.00006z"/>
  <path id="svg_27" fill="#ccc" d="m178.0719,238.402l-19.14161,8.44958a3.00327,3.00327 0 0 1 -3.956,-1.533l-0.47343,-1.07252a3.00327,3.00327 0 0 1 1.533,-3.956l19.1416,-8.44958a3.00328,3.00328 0 0 1 3.956,1.533l0.47344,1.07252a3.00328,3.00328 0 0 1 -1.533,3.956z"/>
  <path id="svg_28" fill="#ccc" d="m185.0719,251.402l-19.14161,8.44958a3.00327,3.00327 0 0 1 -3.956,-1.533l-0.47343,-1.07252a3.00327,3.00327 0 0 1 1.533,-3.956l19.1416,-8.44958a3.00328,3.00328 0 0 1 3.956,1.533l0.47344,1.07252a3.00328,3.00328 0 0 1 -1.533,3.956z"/>
  <path id="svg_29" fill="#a0616a" d="m140.17864,240.5696a10.74267,10.74267 0 0 1 -2.06222,-16.343l-8.0725,-114.55784l23.253,2.25508l0.63868,112.18666a10.80091,10.80091 0 0 1 -13.757,16.45913l0.00004,-0.00003z"/>
  <path id="svg_30" fill="#3f3d56" d="m135.30766,148.16175a4.48168,4.48168 0 0 1 -1.85871,-3.40066l-1.70385,-30.87609a12.39862,12.39862 0 0 1 24.34642,-3.92684l7.48456,27.6049a4.50507,4.50507 0 0 1 -3.16561,5.52077l-21.29065,5.77251a4.48292,4.48292 0 0 1 -3.81216,-0.69459z"/>
  <polygon id="svg_31" fill="#a0616a" points="95.676025390625,381.4079895019531 83.416015625,381.4079895019531 77.583984375,334.1199951171875 95.677978515625,334.1199951171875 95.676025390625,381.4079895019531 "/>
  <path id="svg_32" fill="#2f2e41" d="m74.65909,377.90461l23.64391,0a0,0 0 0 1 0,0l0,14.88687a0,0 0 0 1 0,0l-38.53077,0a0,0 0 0 1 0,0l0,0a14.88686,14.88686 0 0 1 14.88686,-14.88687z"/>
  <polygon id="svg_33" fill="#a0616a" points="141.676025390625,381.4079895019531 129.416015625,381.4079895019531 123.583984375,334.1199951171875 141.677978515625,334.1199951171875 141.676025390625,381.4079895019531 "/>
  <path id="svg_34" fill="#2f2e41" d="m120.65909,377.90461l23.64391,0a0,0 0 0 1 0,0l0,14.88687a0,0 0 0 1 0,0l-38.53077,0a0,0 0 0 1 0,0l0,0a14.88686,14.88686 0 0 1 14.88686,-14.88687z"/>
  <path id="svg_35" fill="#2f2e41" d="m95.09682,357.58534l-13.49634,-0.64355a4.499,4.499 0 0 1 -4.28587,-4.46289c-3.5581,-54.91919 -8.48584,-113.80722 -0.94189,-136.55664a4.50108,4.50108 0 0 1 5.14646,-4.48535l53.99366,7.83789a4.47383,4.47383 0 0 1 3.85353,4.41992c6.89356,26.93641 7.20508,75.7819 6.94434,126.53418a4.5005,4.5005 0 0 1 -4.5,4.53418l-14.55,0a4.47888,4.47888 0 0 1 -4.44531,-3.80078l-8.977,-57.06739a3.5,3.5 0 0 0 -6.93287,0.12793l-7.12622,59.60254a4.5171,4.5171 0 0 1 -4.46875,3.96582q-0.10629,0 -0.21374,-0.00586z"/>
  <path id="svg_36" fill="#3f3d56" d="m104.59782,223.70058c-11.89942,-6.61133 -21.197,-8.34863 -25.67993,-8.7959a4.41807,4.41807 0 0 1 -3.05347,-1.67285a4.47791,4.47791 0 0 1 -0.93115,-3.40137l12.9375,-96.05078a33.21915,33.21915 0 0 1 19.36352,-25.957a32.30589,32.30589 0 0 1 31.39551,2.46094q0.665,0.44238 1.30518,0.90332a33.17817,33.17817 0 0 1 12.63647,34.57324c-7.93359,32.45508 -10.65869,85.66211 -11.12451,95.999a4.46546,4.46546 0 0 1 -2.918,4.00489a45.085,45.085 0 0 1 -15.22583,2.71093a38.12459,38.12459 0 0 1 -18.70529,-4.77442z"/>
  <circle id="svg_37" fill="#a0616a" r="24.56103" cy="50.21977" cx="115.41949"/>
  <path id="svg_38" fill="#2f2e41" d="m132.80009,69.65134c-4.582,4.88078 -13.09132,2.26066 -13.68835,-4.40717a8.05556,8.05556 0 0 1 0.01013,-1.5557c0.30827,-2.95357 2.01461,-5.635 1.60587,-8.7536a4.59041,4.59041 0 0 0 -0.8401,-2.14891c-3.65125,-4.88934 -12.22228,2.18687 -15.6682,-2.2393c-2.113,-2.714 0.3708,-6.98712 -1.25066,-10.02051c-2.14,-4.00357 -8.47881,-2.0286 -12.45387,-4.22115c-4.42275,-2.43949 -4.15822,-9.22525 -1.24686,-13.35269c3.55052,-5.0336 9.77572,-7.71952 15.92335,-8.10661s12.25292,1.27475 17.9923,3.51145c6.52108,2.54134 12.98768,6.05351 17.00066,11.78752c4.88022,6.97317 5.34986,16.34794 2.90917,24.50175c-1.48471,4.96004 -6.55178,11.01924 -10.29344,15.00492z"/>
  <path id="svg_39" fill="#f50004" d="m152.25059,93.53c-0.43018,-2.02 -4.12012,-4.78 -9.39991,-7.03a58.13527,58.13527 0 0 0 -52.5,4.5a2.47961,2.47961 0 0 0 -2.29,1.95l-17.76026,78.55l-2.31006,10.23l-1.52978,6.77l-2.31006,10.2l-1.23,5.45a2.5078,2.5078 0 0 0 2.22021,3.05l76.68995,6.62c0.06982,0 0.1499,0.01 0.21972,0.01a2.50026,2.50026 0 0 0 2.48,-2.34l0.73,-11.11l0.78028,-11.88l0.33984,-5.15l0.77,-11.85l5.10986,-77.84l0,-0.07l-0.00979,-0.06z"/>
  <path id="svg_40" fill="#a0616a" d="m26.41582,98.47439a10.52617,10.52617 0 0 1 0.23929,1.64013l42.95745,24.782l10.44142,-6.01094l11.13116,14.57228l-22.33719,15.92054l-49.00791,-38.66268a10.4958,10.4958 0 1 1 6.57573,-12.24133l0.00005,0z"/>
  <path id="svg_41" fill="#3f3d56" d="m71.14682,122.78919a4.48166,4.48166 0 0 1 1.29315,-3.65337l21.8634,-21.86849a12.39862,12.39862 0 0 1 19.16808,15.51623l-15.57,23.9922a4.50506,4.50506 0 0 1 -6.22447,1.3251l-18.5043,-12.00853a4.48289,4.48289 0 0 1 -2.02586,-3.30314z"/>
  <polygon id="svg_42" fill="#ccc" points="147.1500244140625,171.5 146.3800048828125,183.35000610351562 67.989990234375,181.72999572753906 70.29998779296875,171.5 147.1500244140625,171.5 "/>
  <polygon id="svg_43" fill="#ccc" points="146.041015625,188.5 145.260009765625,200.3800048828125 64.1500244140625,198.6999969482422 66.46099853515625,188.5 146.041015625,188.5 "/>
  <path id="svg_44" fill="#f50004" d="m115.90049,2.5l0,0a31.99347,31.99347 0 0 0 -31.97461,31l-6.02539,0a2.00006,2.00006 0 0 0 -2,2l0,8a2.00006,2.00006 0 0 0 2,2l68,0a2.00006,2.00006 0 0 0 2,-2l0,-9.00006a31.99981,31.99981 0 0 0 -32,-31.99994z"/>
 </g>
</svg>