<svg width="155.70364" height="416.5" xmlns="http://www.w3.org/2000/svg">

 <g>
  <title>background</title>
  <rect fill="none" id="canvas_background" height="418.5" width="157.70364" y="-1" x="-1"/>
 </g>
 <g>
  <title>Layer 1</title>
  <path id="svg_3" fill="#f50004" d="m110.40049,102l-56,0l0,-17c17.6958,-12.31482 33.37451,-11.24438 54,1l2,16z"/>
  <polygon id="svg_4" fill="#ffb8b8" points="41.433013916015625,403.9570007324219 29.173004150390625,403.95599365234375 27.339996337890625,356.6679992675781 41.43499755859375,356.66900634765625 41.433013916015625,403.9570007324219 "/>
  <path id="svg_5" fill="#2f2e41" d="m44.55908,415.84064l-39.53051,-0.00146l0,-0.5a15.38605,15.38605 0 0 1 15.38647,-15.38624l0.001,0l24.1438,0.001l-0.00076,15.8867z"/>
  <polygon id="svg_6" fill="#ffb8b8" points="110.48599243164062,403.9570007324219 122.74600219726562,403.95599365234375 124.57901000976562,356.6679992675781 110.4840087890625,356.66900634765625 110.48599243164062,403.9570007324219 "/>
  <path id="svg_7" fill="#2f2e41" d="m107.35927,399.95392l24.1438,-0.001l0.001,0a15.38605,15.38605 0 0 1 15.38647,15.38624l0,0.5l-39.53051,0.00146l-0.00076,-15.8867z"/>
  <path id="svg_8" fill="#2f2e41" d="m110.80842,397.896a4.52007,4.52007 0 0 1 -4.394,-3.52247l-30.38652,-132.53907a1.45735,1.45735 0 0 0 -1.46411,-1.17383l-0.00757,0a1.45832,1.45832 0 0 0 -1.4602,1.18848l-27.90454,131.64551a4.52164,4.52164 0 0 1 -4.40235,3.5664l-13.29272,0a4.50015,4.50015 0 0 1 -4.49219,-4.76562l9.90088,-166.85547l3.98413,-1.17871l0.07471,0.001l78.25806,0.68457l16.66748,166.67187a4.49788,4.49788 0 0 1 -4.11646,4.92188l-16.604,1.34082q-0.18127,0.01464 -0.3606,0.01464z"/>
  <circle id="svg_9" fill="#ffb8b8" r="24.56103" cy="46.97086" cx="78.49104"/>
  <path id="svg_10" fill="#3f3d56" d="m63.4449,243.73388a42.39306,42.39306 0 0 1 -12.72754,-1.791a28.09708,28.09708 0 0 1 -17.03809,-14.375a4.50533,4.50533 0 0 1 -0.335,-3.35449c2.70874,-9.24512 15.79858,-57.30078 7.44678,-95.50293a40.48488,40.48488 0 0 1 5.75512,-31.11426a39.97674,39.97674 0 0 1 25.927,-17.43848l0.00024,-0.001c1.38525,-0.27051 2.77808,-0.49219 4.13916,-0.66016a39.83567,39.83567 0 0 1 32.25781,10.61328a40.82033,40.82033 0 0 1 12.81568,32.36035l-6.41895,103.00391a4.46,4.46 0 0 1 -2.398,3.70313c-7.39248,3.87403 -29.59951,14.55665 -49.42421,14.55665z"/>
  <path id="svg_11" fill="#2f2e41" d="m106.23745,28.89169a30.15573,30.15573 0 0 0 -33.05269,-18.58369l7.744,6.2578c-9.62156,0.324 -19.74953,-0.36491 -26.61937,6.37933c2.18707,-0.06067 5.05355,4.61731 7.24062,4.55664c-4.08894,0.08087 -7.79673,2.95387 -9.60282,6.62321a18.86524,18.86524 0 0 0 -1.114,11.99709c0.80759,4.00921 6.96813,13.40164 8.62633,17.14011c-0.28515,-9.77015 18.94922,-33.07441 28.3418,-30.64234a25.77238,25.77238 0 0 0 -11.90045,9.03527a34.90423,34.90423 0 0 1 20.70095,-3.38704a14.64993,14.64993 0 0 0 4.935,0.27623a6.02513,6.02513 0 0 0 3.57206,-9.62851l1.12857,-0.0241z"/>
  <path id="svg_12" fill="#f50004" d="m61.75303,237.54883a4.50354,4.50354 0 0 1 -1.802,-0.38037l-46.60059,-20.34033a4.47019,4.47019 0 0 1 -2.55322,-5.27686l30.84985,-116.53906a16.86544,16.86544 0 0 1 20.94068,-11.90332l12.33544,3.5205l-8.68383,146.68067a4.51257,4.51257 0 0 1 -2.146,3.56982a4.46616,4.46616 0 0 1 -2.34033,0.66895z"/>
  <path id="svg_13" fill="#f50004" d="m148.00059,211.55l-2.0503,-7.73l-2.96972,-11.24l-1.43018,-5.39l-2.96972,-11.21l-21.43018,-80.97a16.84727,16.84727 0 0 0 -20.93994,-11.9l-12.33008,3.52l6.10986,103.17l0.63037,10.77l0.39991,6.79l0,0.01l0.63964,10.71l0.9004,15.23a4.53042,4.53042 0 0 0 4.48974,4.24a4.58256,4.58256 0 0 0 1.80029,-0.38l46.59961,-20.34a4.46627,4.46627 0 0 0 2.5503,-5.28z"/>
  <polygon id="svg_14" fill="#ccc" points="141.54998779296875,187.19000244140625 90.62100219726562,200.57000732421875 89.989990234375,189.8000030517578 138.58099365234375,175.97999572753906 141.54998779296875,187.19000244140625 "/>
  <polygon id="svg_15" fill="#ccc" points="145.95001220703125,203.82000732421875 91.66000366210938,218.0800018310547 91.02099609375,207.3699951171875 91.02099609375,207.36000061035156 142.98098754882812,192.5800018310547 145.95001220703125,203.82000732421875 "/>
  <polygon id="svg_16" fill="#ccc" points="68.18099975585938,192.1199951171875 67.54998779296875,202.69000244140625 17.60101318359375,187.80999755859375 20.529998779296875,176.75 68.18099975585938,192.1199951171875 "/>
  <polygon id="svg_17" fill="#ccc" points="67.1400146484375,209.64999389648438 16.170013427734375,193.1999969482422 13.240005493164062,204.2899932861328 66.51998901367188,220.16000366210938 67.1400146484375,209.64999389648438 "/>
  <path id="svg_18" fill="#ffb8b8" d="m17.05901,220.704a10.7427,10.7427 0 0 0 7.04354,-14.89081l23.962,-75.22559l-16.99143,-3.55858l-21.96889,73.75316a10.80091,10.80091 0 0 0 7.95476,19.92182l0.00002,0z"/>
  <path id="svg_19" fill="#3f3d56" d="m48.72969,93.60575l0,0c4.879,0.4977 7.62331,5.98353 6.41025,12.81414l-5.82112,32.77838c-0.43637,2.45712 -2.45848,4.40264 -4.13928,3.98249l-19.69048,-4.922c-1.51517,-0.37875 -2.07319,-2.53134 -1.21458,-4.68526l11.82071,-29.6535c2.56711,-6.43983 7.90417,-10.79677 12.6345,-10.31425z"/>
  <path id="svg_20" fill="#f50004" d="m78.40049,1l0,0a31.99347,31.99347 0 0 1 31.97461,31l6.02539,0a2.00006,2.00006 0 0 1 2,2l0,8a2.00006,2.00006 0 0 1 -2,2l-68,0a2.00006,2.00006 0 0 1 -2,-2l0,-9.00006a31.99981,31.99981 0 0 1 32,-31.99994z"/>
  <path id="svg_21" fill="#e6e6e6" d="m82.22423,198.80485l-14.13567,0a1.8178,1.8178 0 0 1 -1.81574,-1.64685l-2.82948,-29.00177l23.42617,0l-2.82948,29.00142a1.81783,1.81783 0 0 1 -1.8158,1.6472z"/>
  <path id="svg_22" fill="#ccc" d="m86.83207,171.80485l-23.35135,0a1.82648,1.82648 0 0 1 -1.82433,-1.82432l0,-4.37838a1.82648,1.82648 0 0 1 1.82433,-1.82432l23.35135,0a1.82647,1.82647 0 0 1 1.82432,1.82432l0,4.37838a1.82647,1.82647 0 0 1 -1.82432,1.82432z"/>
  <path id="svg_23" fill="#ffb8b8" d="m75.45969,183.25154a10.52648,10.52648 0 0 1 1.62647,0.31919l37.64605,-32.28411l-2.20057,-11.84534l17.44265,-5.65757l5.93353,20.59129a8,8 0 0 1 -3.40935,8.97531l-47.67746,30.1704a10.49709,10.49709 0 1 1 -9.36135,-10.26914l0.00003,-0.00003z"/>
  <path id="svg_24" fill="#3f3d56" d="m114.83019,96.31325l0,0c5.21164,-1.45893 10.4192,2.50789 12.16411,9.26592l8.3734,32.43014c0.62768,2.431 -0.59144,5.01448 -2.49556,5.28836l-22.30669,3.20857c-1.71648,0.2469 -3.22884,-1.51345 -3.29175,-3.8315l-0.8661,-31.9132c-0.18808,-6.93059 3.36978,-13.03382 8.42259,-14.44829z"/>
 </g>
</svg>